Coordinates
version=1
nRows=8
nColumns=27
inDegrees=yes

Units are S.I. units (second, meters, Newtons, ...)
If the header above contains a line with 'inDegrees', this indicates whether rotational values are in degrees (yes) or radians (no).

endheader
time	pelvis_rotation	pelvis_tilt	pelvis_list	pelvis_tx	pelvis_ty	pelvis_tz	hip_flexion_r	hip_adduction_r	hip_rotation_r	knee_angle_r	knee_rotation_r	knee_adduction_r	knee_angle_r_beta	ankle_angle_r	subtalar_angle_r	mtp_angle_r	hip_flexion_l	hip_adduction_l	hip_rotation_l	knee_angle_l	knee_rotation_l	knee_adduction_l	knee_angle_l_beta	ankle_angle_l	subtalar_angle_l	mtp_angle_l
      3.60000000	      5.36598291	    -19.46640475	     -3.69657498	      0.06011133	      0.82602206	     -1.14345552	     31.41909841	    -23.50124100	    -30.74831820	     25.83688328	      0.00000000	      0.78346491	      0.45093868	      0.40381520	      0.00000000	      0.00000000	     42.22689506	    -24.67909733	      1.60457798	     25.84485225	      0.00000000	      6.91083695	      0.45107777	     -1.32165804	      0.00000000	      0.00000000
      3.60500000	      5.28951559	    -19.85809193	     -3.40650347	      0.05866160	      0.82559552	     -1.14368636	     32.35464120	    -23.95333364	    -30.31895821	     26.46280466	      0.00000000	      0.82619095	      0.46186307	      0.50121809	      0.00000000	      0.00000000	     42.71284659	    -24.42787888	      1.50131027	     26.02140556	      0.00000000	      6.96861259	      0.45415920	     -1.36140367	      0.00000000	      0.00000000
      3.61000000	      4.43590925	    -20.19487078	     -2.51124655	      0.05672748	      0.82481902	     -1.14412002	     34.18541277	    -24.77353044	    -28.06401981	     27.59098719	      0.00000000	      0.45003991	      0.48155357	      0.89342279	      0.00000000	      0.00000000	     42.57205726	    -24.14196630	     -0.46024834	     26.10920184	      0.00000000	      6.38454447	      0.45569154	     -1.36755363	      0.00000000	      0.00000000
      3.61500000	      5.12976255	    -20.61898656	     -2.84225774	      0.05568267	      0.82477659	     -1.14416094	     34.23217297	    -24.79920533	    -29.35181435	     27.68129666	      0.00000000	      0.90560489	      0.48312977	      0.68836222	      0.00000000	      0.00000000	     43.66191233	    -23.94872576	      1.28796929	     26.36632742	      0.00000000	      7.07425279	      0.46017923	     -1.44854685	      0.00000000	      0.00000000
      3.62000000	      5.03575591	    -21.13858016	     -2.69985339	      0.05389935	      0.82432498	     -1.14426501	     35.28727870	    -25.04917541	    -28.79246422	     28.20315950	      0.00000000	      0.79059889	      0.49223799	      0.64641324	      0.00000000	      0.00000000	     44.40623591	    -23.82730642	      1.30853373	     26.63459078	      0.00000000	      7.10157688	      0.46486130	     -1.49046327	      0.00000000	      0.00000000
      3.62500000	      4.47494539	    -21.61684601	     -2.17131724	      0.05184688	      0.82357261	     -1.14451628	     36.91836466	    -25.52370090	    -27.11480772	     29.09669479	      0.00000000	      0.48322791	      0.50783313	      0.86820075	      0.00000000	      0.00000000	     44.79393935	    -23.71616683	      0.05143405	     26.91389810	      0.00000000	      6.56134064	      0.46973614	     -1.46453231	      0.00000000	      0.00000000
      3.63000000	      4.00363204	    -21.92674841	     -1.62115065	      0.05002270	      0.82321540	     -1.14481064	     38.24356333	    -26.01977229	    -25.83615235	     29.79656989	      0.00000000	      0.40921395	      0.52004825	      0.81605413	      0.00000000	      0.00000000	     44.75931644	    -23.40542432	     -0.49348238	     26.78982368	      0.00000000	      6.98196629	      0.46757063	     -1.65027319	      0.00000000	      0.00000000
      3.63500000	      4.56452535	    -22.53274689	     -1.74551156	      0.04834906	      0.82275234	     -1.14505311	     38.81369665	    -26.26283594	    -26.51306311	     30.17419772	      0.00000000	      0.66064775	      0.52663910	      0.76622427	      0.00000000	      0.00000000	     46.08414655	    -23.16288929	      0.65159456	     27.25744778	      0.00000000	      7.18832687	      0.47573221	     -1.64354755	      0.00000000	      0.00000000
